<svg id="Layer_1" data-name="Layer 1" xmlns="http://www.w3.org/2000/svg" viewBox="0 0 512 512"><defs><style>.cls-1{fill:#898989;}</style></defs><title>image-other</title><path class="cls-1" d="M506.31,443.73H5.69A5.69,5.69,0,0,1,0,438V74a5.69,5.69,0,0,1,5.69-5.69H506.31A5.69,5.69,0,0,1,512,74V438A5.69,5.69,0,0,1,506.31,443.73ZM11.38,432.36H500.62V79.64H11.38Z"/><path class="cls-1" d="M415.29,352.71H96.71a5.69,5.69,0,0,1-4.44-9.24l91-113.78a5.68,5.68,0,0,1,4.13-2.12,5.29,5.29,0,0,1,4.34,1.66l40.87,40.88L297,184.32c1.08-1.46,2.82-2.8,4.62-2.28a5.72,5.72,0,0,1,4.56,2.38L419.92,343.71a5.69,5.69,0,0,1-4.63,9ZM108.55,341.33H404.23l-102.83-144-63.61,84.8a5.7,5.7,0,0,1-4.14,2.27,5.63,5.63,0,0,1-4.43-1.66l-41-41Z"/></svg>